<?xml version="1.0" encoding="UTF-8"?>
<svg xmlns="http://www.w3.org/2000/svg" width="1024" height="1024" viewBox="0 0 1024 1024">
  <defs>
    <linearGradient id="bgTop" x1="0" y1="0" x2="1" y2="0">
      <stop offset="0" stop-color="#59B6F0"/>
      <stop offset="0.5" stop-color="#59B6F0"/>
      <stop offset="0.5" stop-color="#8DD0F6"/>
      <stop offset="1" stop-color="#8DD0F6"/>
    </linearGradient>
    <linearGradient id="bgBottom" x1="0" y1="0" x2="1" y2="0">
      <stop offset="0" stop-color="#1D5C8E"/>
      <stop offset="0.5" stop-color="#1D5C8E"/>
      <stop offset="0.5" stop-color="#163F63"/>
      <stop offset="1" stop-color="#163F63"/>
    </linearGradient>
    <clipPath id="clip">
      <rect x="0" y="0" width="1024" height="1024" rx="200"/>
    </clipPath>
  </defs>

  <g clip-path="url(#clip)">
    <!-- Background -->
    <rect x="0" y="0" width="1024" height="1024" fill="url(#bgTop)"/>
    <rect x="0" y="450" width="1024" height="574" fill="url(#bgBottom)"/>

    <!-- Side sound bars (left) -->
    <g opacity="0.85">
      <rect x="120" y="270" width="70" height="180" fill="#BFE7FF" opacity="0.85"/>
      <rect x="210" y="230" width="70" height="260" fill="#BFE7FF" opacity="0.7"/>
      <rect x="300" y="260" width="60" height="210" fill="#BFE7FF" opacity="0.6"/>

      <g fill="#88D0FF" opacity="0.6">
        <rect x="210" y="520" width="70" height="150"/>
        <rect x="120" y="540" width="70" height="160"/>
        <rect x="300" y="520" width="60" height="150"/>
      </g>
    </g>

    <!-- Side sound bars (right) mirrored -->
    <g opacity="0.85" transform="translate(1024,0) scale(-1,1)">
      <rect x="120" y="270" width="70" height="180" fill="#BFE7FF" opacity="0.85"/>
      <rect x="210" y="230" width="70" height="260" fill="#BFE7FF" opacity="0.7"/>
      <rect x="300" y="260" width="60" height="210" fill="#BFE7FF" opacity="0.6"/>

      <g fill="#88D0FF" opacity="0.6">
        <rect x="210" y="520" width="70" height="150"/>
        <rect x="120" y="540" width="70" height="160"/>
        <rect x="300" y="520" width="60" height="150"/>
      </g>
    </g>

    <!-- Microphone (podcast style) -->
    <g transform="translate(512 420) scale(0.16) translate(-1941.5 -1941.5)">
      <path fill-rule="nonzero" fill="#FFFFFF" fill-opacity="1" d="M 2292.269531 1645.871094 Z M 2918.78125 1946.628906 Z M 2918.78125 1946.628906 Z M 1953.75 1371.21875 C 1762.738281 1371.21875 1607.898438 1526.070312 1607.898438 1717.070312 L 1607.898438 2147.578125 L 2299.609375 2147.578125 L 2299.609375 2084.289062 L 2044.539062 2084.289062 C 2020.878906 2084.289062 2001.691406 2065.109375 2001.691406 2041.441406 C 2001.691406 2017.78125 2020.878906 1998.601562 2044.539062 1998.601562 C 2044.738281 1998.601562 2044.949219 1998.601562 2045.160156 1998.609375 L 2299.609375 1998.609375 L 2299.609375 1907.101562 L 2045.058594 1907.101562 C 2021.390625 1907.101562 2002.21875 1887.921875 2002.21875 1864.261719 L 2002.21875 1864.25 C 2002.21875 1840.589844 2021.390625 1821.410156 2045.058594 1821.410156 C 2045.261719 1821.410156 2045.46875 1821.410156 2045.679688 1821.421875 L 2299.609375 1821.421875 L 2299.609375 1731.558594 L 2043.878906 1731.550781 C 2020.21875 1731.550781 2001.03125 1712.371094 2001.03125 1688.710938 L 2001.03125 1688.699219 C 2001.03125 1665.039062 2020.21875 1645.859375 2043.878906 1645.859375 C 2044.078125 1645.859375 2044.289062 1645.859375 2044.488281 1645.871094 L 2292.269531 1645.871094 C 2259.441406 1489.019531 2120.351562 1371.21875 1953.75 1371.21875 Z M 2941.78125 1948.328125 L 2941.78125 1948.339844 C 2940.738281 1948.328125 2939.691406 1948.371094 2938.640625 1948.441406 C 2936.808594 1948.570312 2935.011719 1948.800781 2933.25 1949.140625 L 2933.261719 1949.140625 L 2933.261719 2352.140625 L 2933.269531 2352.140625 C 2936.011719 2352.660156 2938.839844 2352.929688 2941.730469 2352.929688 C 2966.539062 2352.929688 2986.648438 2332.820312 2986.648438 2308.019531 L 2986.648438 1993.25 C 2986.648438 1992.21875 2986.621094 1991.191406 2986.550781 1990.160156 C 2984.910156 1966.460938 2965.179688 1948.328125 2941.78125 1948.328125 Z M 965.71875 1948.601562 C 942.320312 1948.601562 922.589844 1966.730469 920.953125 1990.429688 C 920.882812 1991.460938 920.847656 1992.488281 920.847656 1993.519531 L 920.847656 2308.28125 C 920.847656 2333.089844 940.957031 2353.199219 965.765625 2353.199219 C 968.660156 2353.199219 971.492188 2352.929688 974.238281 2352.398438 L 974.246094 2352.398438 L 974.246094 1949.398438 L 974.253906 1949.398438 C 972.492188 1949.070312 970.691406 1948.828125 968.855469 1948.710938 C 967.804688 1948.628906 966.757812 1948.601562 965.71875 1948.601562 Z M 1953.75 697.429688 C 1525.140625 697.429688 1159.761719 968.148438 1019.28125 1347.921875 L 1058.179688 1347.921875 C 1016.789062 1455.140625 994.085938 1571.660156 994.085938 1693.480469 L 994.085938 1934.390625 L 994.078125 1934.390625 C 992.117188 1938.460938 990.328125 1942.628906 988.714844 1946.890625 L 988.726562 1946.890625 L 988.726562 2393.53125 L 988.738281 2393.519531 C 1011.078125 2452.5 1068.089844 2494.429688 1134.898438 2494.429688 C 1142.070312 2494.429688 1149.128906 2493.941406 1156.039062 2493.011719 L 1156.050781 2493.011719 L 1156.050781 2495.289062 C 1156.050781 2505.238281 1160 2514.78125 1167.03125 2521.808594 C 1174.070312 2528.839844 1183.601562 2532.789062 1193.550781 2532.789062 L 1283.320312 2532.789062 C 1304.03125 2532.789062 1320.820312 2516 1320.820312 2495.289062 L 1320.820312 1845.058594 C 1320.820312 1824.351562 1304.03125 1807.558594 1283.320312 1807.558594 L 1193.539062 1807.558594 C 1183.601562 1807.558594 1174.058594 1811.511719 1167.03125 1818.539062 C 1160 1825.570312 1156.050781 1835.109375 1156.050781 1845.058594 L 1156.050781 1847.359375 C 1152.109375 1846.828125 1148.109375 1846.441406 1144.070312 1846.199219 C 1140.949219 1846.019531 1137.839844 1845.929688 1134.75 1845.929688 C 1129.660156 1845.929688 1124.609375 1846.171875 1119.628906 1846.660156 L 1119.628906 1693.480469 C 1119.628906 1570.21875 1146.359375 1453.210938 1194.351562 1347.929688 L 1194.339844 1347.929688 L 1233.78125 1347.921875 C 1362.609375 1080 1636.578125 895.058594 1953.75 895.058594 L 1953.761719 895.058594 C 2270.929688 895.058594 2544.898438 1080 2673.730469 1347.929688 L 2713.160156 1347.929688 C 2761.140625 1453.210938 2787.878906 1570.21875 2787.871094 1693.480469 L 2787.871094 1846.390625 C 2782.890625 1845.910938 2777.839844 1845.660156 2772.75 1845.660156 C 2769.660156 1845.660156 2766.550781 1845.75 2763.429688 1845.941406 C 2759.390625 1846.171875 2755.390625 1846.558594 2751.449219 1847.101562 L 2751.449219 1844.789062 C 2751.449219 1824.078125 2734.660156 1807.289062 2713.949219 1807.289062 L 2624.179688 1807.289062 L 2624.179688 1807.300781 C 2614.230469 1807.289062 2604.699219 1811.25 2597.660156 1818.28125 C 2590.628906 1825.308594 2586.679688 1834.851562 2586.679688 1844.789062 L 2586.679688 2495.03125 C 2586.679688 2504.96875 2590.628906 2514.511719 2597.660156 2521.539062 C 2604.699219 2528.578125 2614.230469 2532.53125 2624.179688 2532.53125 L 2713.949219 2532.53125 C 2734.660156 2532.53125 2751.449219 2515.738281 2751.449219 2495.03125 L 2751.449219 2492.738281 L 2751.46875 2492.738281 C 2758.378906 2493.679688 2765.429688 2494.160156 2772.601562 2494.160156 C 2839.410156 2494.160156 2896.421875 2452.230469 2918.761719 2393.261719 L 2918.769531 2393.261719 L 2918.769531 1946.628906 L 2918.78125 1946.628906 L 2918.769531 1946.628906 L 2918.78125 1946.628906 L 2918.769531 1946.628906 L 2918.78125 1946.628906 C 2917.179688 1942.371094 2915.390625 1938.199219 2913.429688 1934.128906 L 2913.410156 1693.480469 C 2913.410156 1571.660156 2890.71875 1455.140625 2849.320312 1347.929688 L 2849.308594 1347.929688 L 2888.230469 1347.929688 C 2747.738281 968.148438 2382.359375 697.429688 1953.75 697.429688 Z M 1607.898438 2233.261719 L 1607.898438 2255.738281 C 1607.898438 2446.75 1762.738281 2601.601562 1953.75 2601.601562 C 2144.761719 2601.601562 2299.609375 2446.75 2299.609375 2255.738281 L 2299.609375 2233.269531 Z M 1449.230469 2170.269531 L 1449.230469 2275.070312 C 1449.230469 2527.988281 1635.320312 2737.441406 1878.058594 2773.960938 L 1878.058594 2883.703125 C 1878.058594 2883.765625 1878.058594 2883.832031 1878.058594 2883.894531 L 1676.519531 2883.894531 C 1676.519531 2913.433594 1676.519531 2942.96875 1676.519531 2972.507812 C 1861.339844 2972.507812 2046.160156 2972.507812 2230.980469 2972.507812 C 2230.980469 2942.96875 2230.980469 2913.433594 2230.980469 2883.894531 L 2029.449219 2883.894531 L 2029.449219 2883.898438 C 2029.449219 2883.832031 2029.449219 2883.765625 2029.449219 2883.703125 L 2029.449219 2773.960938 C 2272.179688 2737.441406 2458.269531 2527.988281 2458.269531 2275.070312 L 2458.269531 2170.269531 L 2346.828125 2170.269531 L 2346.828125 2275.070312 C 2346.828125 2492.160156 2170.839844 2668.148438 1953.75 2668.148438 C 1736.660156 2668.148438 1560.679688 2492.160156 1560.679688 2275.070312 L 1560.679688 2170.269531 Z M 1449.230469 2170.269531 "/>
    </g>

    <!-- Title -->
    <text x="280" y="810" text-anchor="middle" dominant-baseline="middle"
          font-family="system-ui, -apple-system, Segoe UI, Roboto, Arial, sans-serif"
          font-size="150" font-weight="800" fill="#FFFFFF">
      Öffi Sounds
    </text>
  </g>

  <!-- Rounded rect outline to match iOS-style icon edge (subtle) -->
  <rect x="0.5" y="0.5" width="1023" height="1023" rx="200" fill="none" opacity="0.08" stroke="#000000"/>
</svg>
